<svg xmlns="http://www.w3.org/2000/svg" width="45.553" height="43.988" viewBox="0 0 45.553 43.988">
  <path id="angry-regular" d="M22.776,8C10.194,8,0,17.844,0,29.994S10.194,51.988,22.776,51.988s22.776-9.844,22.776-21.994S35.358,8,22.776,8Zm0,39.731c-10.13,0-18.368-7.955-18.368-17.737s8.238-17.737,18.368-17.737,18.368,7.955,18.368,17.737S32.906,47.731,22.776,47.731Zm0-12.771a10.521,10.521,0,0,0-7.972,3.6,2.076,2.076,0,0,0,.285,3,2.255,2.255,0,0,0,3.1-.266,6.3,6.3,0,0,1,9.166,0,2.257,2.257,0,0,0,3.1.266,2.084,2.084,0,0,0,.285-3,10.521,10.521,0,0,0-7.972-3.6Zm-4.408-6.385a2.2,2.2,0,0,0,2.112-1.517A2.119,2.119,0,0,0,19,24.407l-7.347-2.128a2.208,2.208,0,0,0-2.746,1.428,2.119,2.119,0,0,0,1.479,2.652l2.59.754a2.672,2.672,0,0,0-.487,1.472,2.941,2.941,0,0,0,5.878-.009Zm18.276-4.869A2.216,2.216,0,0,0,33.9,22.278l-7.347,2.128a2.119,2.119,0,0,0-1.479,2.652,2.2,2.2,0,0,0,2.112,1.517,2.941,2.941,0,0,0,5.878,0,2.672,2.672,0,0,0-.487-1.472l2.59-.754a2.106,2.106,0,0,0,1.479-2.643Z" transform="translate(0 -8)"/>
</svg>
