<svg xmlns="http://www.w3.org/2000/svg" width="199.671" height="208" viewBox="0 0 199.671 208">
  <g id="undraw_choose_re_7d5a" transform="translate(0 0)">
    <path id="Tracé_27" data-name="Tracé 27" d="M767.729,615.442l-9.146,8.42,7.269-12.2c-5.726-10.385-15.092-19.36-15.092-19.36s-19.431,18.616-19.431,33.249,8.7,19.743,19.431,19.743,19.431-5.109,19.431-19.743A25.676,25.676,0,0,0,767.729,615.442Z" transform="translate(-584.598 -437.492)" fill="#f2f2f2"/>
    <path id="Tracé_28" data-name="Tracé 28" d="M791.017,622.857v.721c-.043,8.384-1.457,14.926-4.231,19.532-.039.068-.082.132-.121.2l-.311-.189-.3-.186c3.078-4.974,4.167-12.005,4.206-19.318,0-.236.007-.475,0-.714-.011-3.1-.2-6.227-.5-9.27-.021-.236-.046-.475-.071-.714-.421-4.014-1.028-7.849-1.65-11.18-.043-.236-.089-.471-.136-.7-1.075-5.635-2.171-9.716-2.421-10.62-.029-.111-.046-.171-.05-.186l.339-.1,0,0,.343-.1c0,.014.064.218.164.6.382,1.414,1.375,5.253,2.35,10.316.043.229.089.464.132.7.507,2.7,1,5.724,1.4,8.895q.15,1.194.268,2.357c.029.239.054.479.075.714Q791,618.545,791.017,622.857Z" transform="translate(-619.385 -436.031)" fill="#fff"/>
    <path id="Tracé_29" data-name="Tracé 29" d="M773.726,617.572c-.239.032-.482.064-.728.089a19.711,19.711,0,0,1-2.014.1,19.161,19.161,0,0,1-8.284-1.871l-.453.571a19.872,19.872,0,0,0,8.738,2.014,20.36,20.36,0,0,0,2.15-.114c.243-.025.486-.057.725-.093a19.7,19.7,0,0,0,5.7-1.725q-.23-.295-.45-.578A19.1,19.1,0,0,1,773.726,617.572Z" transform="translate(-604.475 -452.657)" fill="#fff"/>
    <path id="Tracé_30" data-name="Tracé 30" d="M768.45,639.238q-.37.021-.739.021c-.075,0-.153,0-.229,0A19.264,19.264,0,0,1,751.671,631c-.143.211-.286.422-.425.636a19.979,19.979,0,0,0,16.237,8.338c.1,0,.2,0,.3,0,.25,0,.5-.011.743-.021a19.873,19.873,0,0,0,10.587-3.714c-.114-.211-.229-.421-.346-.632A19.131,19.131,0,0,1,768.45,639.238Z" transform="translate(-597.403 -462.371)" fill="#fff"/>
    <path id="Tracé_31" data-name="Tracé 31" d="M764.073,657.047c-.25.021-.5.036-.75.046-.268.011-.536.018-.8.018A19.316,19.316,0,0,1,744,643.214c-.161.289-.321.575-.475.864a20.023,20.023,0,0,0,18.993,13.748c.268,0,.536,0,.8-.018s.5-.021.754-.039a19.965,19.965,0,0,0,13.176-6.431c-.075-.264-.161-.525-.246-.789A19.254,19.254,0,0,1,764.073,657.047Z" transform="translate(-592.44 -470.221)" fill="#fff"/>
    <path id="Rectangle_1_-_Outline" data-name="Rectangle 1 - Outline" d="M547.279,261.769,447.8,249.087a6.46,6.46,0,0,0-.808-.052,6.162,6.162,0,0,0-.8.05,6.093,6.093,0,0,0-.782.153,6.245,6.245,0,0,0-.764.258,6.513,6.513,0,0,0-.711.344,6.784,6.784,0,0,0-.674.43,7.237,7.237,0,0,0-.634.518,7.875,7.875,0,0,0-.592.6,8.488,8.488,0,0,0-.54.68q-.255.358-.478.745t-.415.807q-.191.419-.349.867-.163.463-.286.946t-.205.983q-.081.5-.124,1.015t-.043,1.044q0,.528.043,1.052t.124,1.04q.083.518.206,1.026t.286,1q.158.479.349.937t.415.891q.224.433.478.841t.54.788q.285.379.592.723t.634.645q.328.3.674.566a8.433,8.433,0,0,0,.711.485,7.777,7.777,0,0,0,.764.41,7.177,7.177,0,0,0,.782.31,6.778,6.778,0,0,0,.8.21,6.593,6.593,0,0,0,.808.11l99.479,7.277a2.52,2.52,0,0,0,.86-.086,2.692,2.692,0,0,0,.415-.153,3.075,3.075,0,0,0,.4-.226,3.59,3.59,0,0,0,.372-.284,4.167,4.167,0,0,0,.351-.344,4.957,4.957,0,0,0,.328-.4q.159-.216.3-.46t.276-.509q.13-.265.244-.551t.211-.591q.1-.305.176-.628t.144-.681q.061-.346.1-.7t.062-.723q.021-.366.021-.741t-.021-.744q-.019-.371-.062-.735t-.1-.724q-.062-.359-.144-.71t-.176-.664q-.1-.32-.211-.63t-.244-.6q-.13-.291-.276-.565t-.3-.521q-.158-.247-.328-.469t-.351-.414a4.828,4.828,0,0,0-.372-.358,4.049,4.049,0,0,0-.4-.306,3.386,3.386,0,0,0-.415-.236,2.949,2.949,0,0,0-.426-.165,2.709,2.709,0,0,0-.435-.092" transform="translate(-397.038 -216.796)" fill="#0385f0"/>
    <path id="Rectangle_3_-_Outline" data-name="Rectangle 3 - Outline" d="M547.279,360.511,447.8,358.128a6.4,6.4,0,0,0-1.6.164,6.556,6.556,0,0,0-.782.234,6.934,6.934,0,0,0-.764.335,7.394,7.394,0,0,0-.711.416,7.819,7.819,0,0,0-.674.5,8.434,8.434,0,0,0-.634.584q-.307.313-.592.665t-.54.736q-.255.383-.478.794t-.415.85q-.191.439-.349.9-.163.48-.286.976t-.205,1q-.081.508-.124,1.029t-.043,1.048q0,.528.043,1.048t.124,1.028q.083.506.206,1t.286.974q.158.465.349.9t.415.848q.224.41.478.791t.54.731q.285.351.592.662a8.321,8.321,0,0,0,.634.58,7.755,7.755,0,0,0,.674.5,7.342,7.342,0,0,0,.711.411,6.879,6.879,0,0,0,.764.331,6.511,6.511,0,0,0,.782.229,6.316,6.316,0,0,0,1.6.155l99.478-3.027a2.589,2.589,0,0,0,.435-.05,2.7,2.7,0,0,0,.426-.123,3.016,3.016,0,0,0,.415-.2,3.523,3.523,0,0,0,.4-.267,4.159,4.159,0,0,0,.372-.322,4.849,4.849,0,0,0,.351-.38q.169-.2.328-.436t.3-.491q.146-.26.276-.538t.244-.576q.114-.3.211-.615t.176-.645q.084-.34.144-.692t.1-.714q.042-.362.062-.731t.021-.743q0-.371-.021-.741t-.062-.731q-.042-.362-.1-.713t-.144-.7q-.08-.332-.177-.646t-.21-.611q-.113-.3-.243-.575t-.276-.536q-.147-.258-.3-.49t-.328-.435a4.814,4.814,0,0,0-.351-.378,4.13,4.13,0,0,0-.372-.32,3.491,3.491,0,0,0-.4-.265,2.987,2.987,0,0,0-.415-.193,2.7,2.7,0,0,0-.426-.121,2.582,2.582,0,0,0-.435-.047" transform="translate(-397.038 -286.933)" fill="#e4e4e4"/>
    <path id="Rectangle_4_-_Outline" data-name="Rectangle 4 - Outline" d="M547.279,439.891,447.8,447.167a6.6,6.6,0,0,0-.808.11,6.767,6.767,0,0,0-.8.21,7.166,7.166,0,0,0-.782.31,7.8,7.8,0,0,0-.764.41,8.441,8.441,0,0,0-.711.485q-.347.265-.674.566t-.634.645q-.307.343-.592.723t-.54.789q-.255.408-.478.841t-.415.891q-.191.457-.349.937-.163.5-.286,1t-.205,1.024q-.081.517-.124,1.041T439.6,458.2q0,.528.043,1.044t.124,1.016q.083.5.206.983t.286.946q.158.448.349.867t.415.807q.224.388.478.745a8.474,8.474,0,0,0,.54.68,7.872,7.872,0,0,0,.592.6,7.225,7.225,0,0,0,.634.518,6.761,6.761,0,0,0,.674.43,6.505,6.505,0,0,0,.711.344,6.262,6.262,0,0,0,.764.258,6.093,6.093,0,0,0,.782.153,6.161,6.161,0,0,0,.8.05,6.458,6.458,0,0,0,.808-.052l99.478-12.68a2.721,2.721,0,0,0,.435-.092,2.96,2.96,0,0,0,.426-.165,3.39,3.39,0,0,0,.415-.236,4.044,4.044,0,0,0,.4-.306,4.834,4.834,0,0,0,.372-.358q.179-.193.351-.414t.328-.469q.159-.248.3-.521t.276-.565q.13-.293.244-.6t.211-.634q.1-.324.176-.664t.144-.711q.061-.359.1-.724t.062-.735q.021-.371.021-.745t-.021-.738q-.019-.366-.062-.723t-.1-.7q-.062-.346-.144-.681t-.176-.628q-.1-.3-.21-.591t-.244-.551q-.131-.263-.278-.508t-.3-.46a4.944,4.944,0,0,0-.328-.4,4.154,4.154,0,0,0-.351-.344,3.562,3.562,0,0,0-.372-.284,3.063,3.063,0,0,0-.4-.226,2.7,2.7,0,0,0-.415-.153,2.519,2.519,0,0,0-.86-.086" transform="translate(-397.038 -339.497)" fill="#e4e4e4"/>
    <path id="Path_5" data-name="Path 5" d="M588.019,354.893a4.989,4.989,0,0,0,9.029-4.085l19.28-39.609L607.1,305.6l-16.651,42.073q-.1.037-.188.078t-.184.085q-.092.044-.182.093t-.18.1a5,5,0,0,0-1.7,6.856Z" transform="translate(-491.999 -253.165)" fill="#9e616a"/>
    <path id="Path_8" data-name="Path 8" d="M633.626,300.1l-13.7-3.511s.447-1.011,1.174-2.686,1.742-4.01,2.885-6.662,2.41-5.614,3.648-8.543,2.442-5.822,3.456-8.33a10.788,10.788,0,0,1,3.324-4.852,4.569,4.569,0,0,1,3.358-.893,6.491,6.491,0,0,1,2.6.989,7.074,7.074,0,0,1,1.043.792l3.176,5.775Z" transform="translate(-512.977 -226.797)" fill="#ccc"/>
    <path id="Ellipse_3_-_Outline" data-name="Ellipse 3 - Outline" d="M333.215,355.219a8.9,8.9,0,0,0-.989.129,9.051,9.051,0,0,0-.974.239,9.408,9.408,0,0,0-.957.35,9.974,9.974,0,0,0-.936.46q-.446.251-.871.545t-.827.633q-.4.337-.778.72t-.726.806q-.349.424-.662.878t-.587.936q-.272.483-.508.992t-.43,1.042q-.2.552-.353,1.116t-.252,1.137q-.1.573-.152,1.155t-.051,1.167q0,.586.051,1.157t.152,1.124q.1.553.252,1.087t.352,1.045q.2.494.43.956a10.215,10.215,0,0,0,.509.889,9.764,9.764,0,0,0,.587.817,9.471,9.471,0,0,0,.663.747,9.089,9.089,0,0,0,.726.66,8.593,8.593,0,0,0,.778.564,8.284,8.284,0,0,0,1.7.836,8.12,8.12,0,0,0,1.891.43,8.313,8.313,0,0,0,.974.043,8.75,8.75,0,0,0,.989-.07,9.047,9.047,0,0,0,.983-.181,9.248,9.248,0,0,0,.961-.288,9.63,9.63,0,0,0,.935-.394,10.2,10.2,0,0,0,.906-.5q.429-.267.835-.573t.787-.653q.381-.346.735-.731t.682-.806q.329-.422.62-.869t.544-.918q.254-.471.469-.963t.393-1.006q.184-.531.322-1.072t.23-1.088q.092-.549.138-1.1t.046-1.113q0-.559-.046-1.1t-.138-1.075q-.092-.529-.23-1.042t-.322-1.007q-.178-.478-.393-.927t-.471-.869a9.752,9.752,0,0,0-1.162-1.553,9.226,9.226,0,0,0-.68-.67,8.719,8.719,0,0,0-.735-.583,8.411,8.411,0,0,0-.787-.495,8.313,8.313,0,0,0-.836-.4,8.114,8.114,0,0,0-1.841-.522,8.236,8.236,0,0,0-.961-.1,8.618,8.618,0,0,0-.983.016" transform="translate(-322.18 -285.049)" fill="#e4e4e4"/>
    <path id="Ellipse_3_-_Outline-2" data-name="Ellipse 3 - Outline" d="M333.215,468.372a8.9,8.9,0,0,0-.989.129,9.051,9.051,0,0,0-.974.239,9.407,9.407,0,0,0-.957.35,9.985,9.985,0,0,0-.936.46q-.446.251-.871.545t-.827.633q-.4.337-.778.72t-.726.806q-.349.424-.662.878t-.587.936q-.272.483-.508.992t-.43,1.042q-.2.552-.353,1.116t-.252,1.137q-.1.573-.152,1.155t-.051,1.167q0,.586.051,1.157t.152,1.124q.1.553.252,1.087t.352,1.045q.2.494.43.956a10.208,10.208,0,0,0,.509.889,9.756,9.756,0,0,0,.587.817,9.484,9.484,0,0,0,.663.747,9.094,9.094,0,0,0,.726.66,8.594,8.594,0,0,0,.778.564,8.287,8.287,0,0,0,1.7.836,8.122,8.122,0,0,0,1.891.43,8.312,8.312,0,0,0,.974.043,8.743,8.743,0,0,0,.989-.07,9.065,9.065,0,0,0,.983-.181,9.239,9.239,0,0,0,.961-.288,9.62,9.62,0,0,0,.935-.394,10.215,10.215,0,0,0,.906-.5q.429-.267.835-.573t.787-.652q.381-.346.735-.731t.682-.806q.329-.422.62-.869t.544-.918q.254-.471.469-.963t.393-1.006q.184-.531.322-1.072t.23-1.088q.092-.549.138-1.1t.046-1.113q0-.559-.046-1.1t-.138-1.075q-.092-.529-.23-1.042t-.322-1.007q-.178-.478-.393-.927t-.471-.869a9.752,9.752,0,0,0-1.162-1.553,9.213,9.213,0,0,0-.68-.67,8.712,8.712,0,0,0-.736-.583,8.4,8.4,0,0,0-.787-.495,8.313,8.313,0,0,0-.836-.4,8.114,8.114,0,0,0-1.841-.522,8.237,8.237,0,0,0-.961-.1,8.625,8.625,0,0,0-.983.016" transform="translate(-322.18 -357.798)" fill="#e4e4e4"/>
    <path id="Ellipse_2_-_Outline" data-name="Ellipse 2 - Outline" d="M331.449,230.739a8.69,8.69,0,0,0-.989.032,8.56,8.56,0,0,0-.974.144,8.652,8.652,0,0,0-.957.258,8.953,8.953,0,0,0-.936.369,9.308,9.308,0,0,0-.871.459,9.563,9.563,0,0,0-.827.553,9.978,9.978,0,0,0-.778.645q-.379.348-.728.737t-.662.814q-.313.424-.587.879t-.509.945q-.236.484-.43,1-.2.532-.352,1.081t-.252,1.113q-.1.565-.152,1.14t-.051,1.161q0,.585.051,1.161t.152,1.139q.1.563.252,1.111t.352,1.079q.2.513.43,1t.511.937q.274.454.587.876t.662.81q.35.387.726.731a9.9,9.9,0,0,0,.774.642,9.476,9.476,0,0,0,.827.547,9.238,9.238,0,0,0,.871.453,8.9,8.9,0,0,0,.936.363,8.563,8.563,0,0,0,1.931.387,8.746,8.746,0,0,0,1.972-.06,8.628,8.628,0,0,0,.961-.2,8.752,8.752,0,0,0,.935-.3,9.076,9.076,0,0,0,.906-.41,9.455,9.455,0,0,0,.836-.49,9.72,9.72,0,0,0,.787-.576q.381-.309.735-.659t.682-.74q.329-.39.62-.809t.544-.865q.254-.446.469-.918t.393-.966q.184-.513.322-1.04t.23-1.066q.092-.541.138-1.091t.046-1.109q0-.558-.046-1.108t-.138-1.088q-.092-.539-.23-1.065T340.3,237.7q-.178-.495-.393-.965t-.471-.916q-.254-.442-.544-.86t-.618-.8q-.325-.386-.68-.735t-.735-.655a9.634,9.634,0,0,0-.787-.573,9.368,9.368,0,0,0-.836-.485,9.029,9.029,0,0,0-.906-.4,8.706,8.706,0,0,0-.935-.3,8.591,8.591,0,0,0-.961-.189,8.7,8.7,0,0,0-.983-.079m0-1.075a9.551,9.551,0,0,1,4.142,1.072,10.87,10.87,0,0,1,3.322,2.683,12.652,12.652,0,0,1,2.209,3.879,14.149,14.149,0,0,1,0,9.4,12.757,12.757,0,0,1-2.209,3.893,10.973,10.973,0,0,1-3.322,2.7,9.6,9.6,0,0,1-4.142,1.1,9.469,9.469,0,0,1-4.226-.842,10.685,10.685,0,0,1-3.516-2.592A12.517,12.517,0,0,1,321.3,247a14.136,14.136,0,0,1,0-9.863,12.623,12.623,0,0,1,2.4-3.985,10.785,10.785,0,0,1,3.516-2.615,9.5,9.5,0,0,1,4.229-.87Z" transform="translate(-320.413 -204.34)" fill="#0385f0"/>
    <path id="Path_1" data-name="Path 1" d="M345.221,244.834l-3.386-7.054.8-.524,2.789,5.795,11.71-13.763.709.755Z" transform="translate(-334.185 -204.1)" fill="#0385f0"/>
    <g id="Group_1" data-name="Group 1" transform="translate(117.406 179.958)">
      <path id="Path_1-2" data-name="Path 1-2" d="M681.312,662.752l-8.382-.033,2.7,21.9,5.679.028Z" transform="translate(-664.458 -662.719)" fill="#9e616a"/>
      <path id="Path_2" data-name="Path 2" d="M667.506,726.221l-18.3-.1v-.231a7.174,7.174,0,0,1,.137-1.4,7,7,0,0,1,1.055-2.543,7.187,7.187,0,0,1,1.979-1.97,7,7,0,0,1,2.548-1.044,7.178,7.178,0,0,1,1.4-.129h0l11.183.055Z" transform="translate(-649.205 -698.781)" fill="#2f2e41"/>
    </g>
    <g id="Group_2" data-name="Group 2" transform="translate(90.612 179.854)">
      <path id="Path_3" data-name="Path 3" d="M606.2,662.46l-8.358-.033,2.694,21.872,5.663.028Z" transform="translate(-589.388 -662.427)" fill="#9e616a"/>
      <path id="Path_4" data-name="Path 4" d="M592.424,725.842l-18.253-.1v-.231a7.18,7.18,0,0,1,.137-1.4,7,7,0,0,1,1.052-2.539,7.167,7.167,0,0,1,1.975-1.968,6.978,6.978,0,0,1,2.541-1.042,7.154,7.154,0,0,1,1.4-.129h0l11.152.055Z" transform="translate(-574.171 -698.439)" fill="#2f2e41"/>
    </g>
    <path id="Path_6" data-name="Path 6" d="M594.945,411.829l-14.054,52.45,5.144,50.277,11.391.314-2.48-45.4,14.21-22.655,3.082,68.361,10.332-.731,5.748-58.777a66.748,66.748,0,0,0,4.268-14.292A63.634,63.634,0,0,0,633.6,429.7a54.607,54.607,0,0,0-.606-7.873,28.829,28.829,0,0,0-.568-2.887l-4.19-4.248Z" transform="translate(-487.879 -321.459)" fill="#2f2e41"/>
    <path id="Tracé_32" data-name="Tracé 32" d="M634.528,319.443c-2.364,0-4.581-.076-6.592-.226a49.491,49.491,0,0,1-6.118-.806,21.786,21.786,0,0,1-4.99-1.571,8.008,8.008,0,0,1-3.237-2.554l-.1-.139,3.842-25,4.142-28.11a7.661,7.661,0,0,1,7.817-6.546l12.974.4a7.271,7.271,0,0,1,7.035,7.71l-1.7,27.956,6.282,27.575-.445.062c-.179.024-.868.115-1.948.236-1.412.159-2.853.3-4.284.425-2.025.175-4.006.312-5.888.408C638.929,319.382,636.641,319.44,634.528,319.443Z" transform="translate(-508.84 -220.301)" fill="#ccc"/>
    <path id="Path_9" data-name="Path 9" d="M648.488,187.972h-.01a2.073,2.073,0,0,1-2.071-2.074V174.331a15.459,15.459,0,0,1,1.219-6.033,15.708,15.708,0,0,1,8.253-8.3,15.467,15.467,0,0,1,21.564,14.19v11.585a2.077,2.077,0,0,1-.164.812,2.11,2.11,0,0,1-1.112,1.114,2.082,2.082,0,0,1-.812.167l-26.868.1Z" transform="translate(-530 -158.75)" fill="#2f2e41"/>
    <path id="Ellipse_1" data-name="Ellipse 1" d="M671.03,180.695a11.4,11.4,0,0,1-13.184,16.424,11.269,11.269,0,0,1-6.779-5.431,11.4,11.4,0,0,1,13.175-16.42,11.269,11.269,0,0,1,6.788,5.427Z" transform="translate(-532.098 -169.081)" fill="#9e616a"/>
    <path id="Path_10" data-name="Path 10" d="M636.133,182.818a12.229,12.229,0,0,1,.964-4.771,12.417,12.417,0,0,1,6.526-6.559,12.234,12.234,0,0,1,4.771-.989l2.315-.012h.078a12.207,12.207,0,0,1,12.2,12.215v.232l-4.9.02-1.67-4.665-.334,4.674-2.53.011-.842-2.354-.169,2.357-16.411.074Z" transform="translate(-523.395 -166.296)" fill="#2f2e41"/>
    <path id="Path_11" data-name="Path 11" d="M573.569,272.891A5.373,5.373,0,0,0,571.5,273.9a5.23,5.23,0,0,0-1.2,1.345,5.459,5.459,0,0,0-.789,3.406,5.225,5.225,0,0,0,.482,1.734,5.317,5.317,0,0,0,7.635,2.239l.14-.092q.069-.047.136-.1t.132-.1l.128-.1,27.025,9.618a4.073,4.073,0,0,0,4.671-1.459l6.407-8.871-7.746-5.216-4.065,4.618-24.732-4.92q-.041-.1-.084-.191t-.091-.189q-.048-.094-.1-.187t-.107-.185A5.312,5.312,0,0,0,573.569,272.891Z" transform="translate(-480.548 -232.036)" fill="#9e616a"/>
    <path id="Path_12" data-name="Path 12" d="M666.518,266.585c.808-1.009,1.939-2.319,3.087-3.618s2.314-2.587,3.193-3.55,1.471-1.6,1.471-1.6a6.368,6.368,0,0,1,11.569,4.7,6.275,6.275,0,0,1-.95,2.328s-.882,1.154-2.213,2.876-3.112,4.015-4.908,6.294-3.61,4.546-5.008,6.22-2.383,2.755-2.521,2.662l-4.878-14.5C665.222,268.3,665.71,267.594,666.518,266.585Z" transform="translate(-542.171 -220.605)" fill="#ccc"/>
    <path id="Path_13" data-name="Path 13" d="M676.677,204.277a2.039,2.039,0,0,0,.086,1.12,2.086,2.086,0,0,0,.273.514,2.113,2.113,0,0,0,.339.364,2.069,2.069,0,0,0,1.344.489l.092,0,.092-.006.092-.01.092-.015,1.738-.316,2.394-5.115v4.685l7.9-1.423V184.679l-13.249.064.328.38a9.113,9.113,0,0,1,2.063,4.484,14.856,14.856,0,0,1-.1,5.053,26.792,26.792,0,0,1-1.411,4.935,39.478,39.478,0,0,1-1.884,4.136,2.083,2.083,0,0,0-.2.547Z" transform="translate(-549.435 -175.42)" fill="#2f2e41"/>
    <path id="Tracé_33" data-name="Tracé 33" d="M418.981,739.7H582.749a.43.43,0,1,0,0-.86H418.981a.43.43,0,1,0,0,.86Z" transform="translate(-383.508 -531.702)" fill="#cacaca"/>
  </g>
</svg>
