<svg xmlns="http://www.w3.org/2000/svg" width="216" height="32.622" viewBox="0 0 216 32.622">
  <g id="Groupe_98" data-name="Groupe 98" transform="translate(-358 -601)">
    <path id="angry-regular" d="M16.891,8C7.56,8,0,15.3,0,24.311S7.56,40.622,16.891,40.622s16.891-7.3,16.891-16.311S26.222,8,16.891,8Zm0,29.465A13.407,13.407,0,0,1,3.269,24.311,13.407,13.407,0,0,1,16.891,11.157,13.407,13.407,0,0,1,30.513,24.311,13.407,13.407,0,0,1,16.891,37.465Zm0-9.471a7.8,7.8,0,0,0-5.912,2.67,1.54,1.54,0,0,0,.211,2.223,1.672,1.672,0,0,0,2.3-.2,4.675,4.675,0,0,1,6.8,0,1.674,1.674,0,0,0,2.3.2,1.545,1.545,0,0,0,.211-2.223,7.8,7.8,0,0,0-5.912-2.67Zm-3.269-4.735a1.631,1.631,0,0,0,1.567-1.125,1.572,1.572,0,0,0-1.1-1.967L8.643,18.589a1.638,1.638,0,0,0-2.036,1.059,1.572,1.572,0,0,0,1.1,1.966l1.921.559a1.981,1.981,0,0,0-.361,1.092,2.181,2.181,0,0,0,4.359-.007Zm13.554-3.611a1.643,1.643,0,0,0-2.036-1.059L19.69,20.167a1.572,1.572,0,0,0-1.1,1.967,1.631,1.631,0,0,0,1.567,1.125,2.181,2.181,0,0,0,4.359,0,1.982,1.982,0,0,0-.361-1.092l1.921-.559a1.562,1.562,0,0,0,1.1-1.96Z" transform="translate(358 593)"/>
    <path id="frown-open-regular" d="M16.891,8C7.56,8,0,15.3,0,24.31S7.56,40.62,16.891,40.62s16.891-7.3,16.891-16.31S26.222,8,16.891,8Zm0,29.463A13.407,13.407,0,0,1,3.269,24.31,13.407,13.407,0,0,1,16.891,11.157,13.407,13.407,0,0,1,30.513,24.31,13.407,13.407,0,0,1,16.891,37.463Zm-3.269-16.31a2.181,2.181,0,1,0-2.179,2.1A2.141,2.141,0,0,0,13.622,21.153Zm8.718-2.1a2.106,2.106,0,1,0,2.179,2.1A2.141,2.141,0,0,0,22.34,19.049Zm-5.449,7.366c-2.425,0-6.048,1.4-6.525,4.025a1.081,1.081,0,0,0,1.4,1.19,21.232,21.232,0,0,1,5.129-1.006A21.232,21.232,0,0,1,22.02,31.63a1.081,1.081,0,0,0,1.4-1.19C22.939,27.815,19.316,26.415,16.891,26.415Z" transform="translate(418.91 593)"/>
    <path id="smile-beam-regular" d="M16.891,8C7.56,8,0,15.3,0,24.31S7.56,40.62,16.891,40.62s16.891-7.3,16.891-16.31S26.222,8,16.891,8Zm0,29.463A13.407,13.407,0,0,1,3.269,24.31,13.407,13.407,0,0,1,16.891,11.157,13.407,13.407,0,0,1,30.513,24.31,13.407,13.407,0,0,1,16.891,37.463Zm5.721-9.431a7.612,7.612,0,0,1-11.442,0,1.679,1.679,0,0,0-2.3-.2,1.545,1.545,0,0,0-.211,2.223,10.969,10.969,0,0,0,16.469,0,1.54,1.54,0,0,0-.211-2.223A1.679,1.679,0,0,0,22.612,28.032ZM9.3,21.351a2.551,2.551,0,0,1,2.145-1.421,2.551,2.551,0,0,1,2.145,1.421l.647,1.118a.548.548,0,0,0,.633.243.528.528,0,0,0,.388-.546c-.225-2.769-2.193-4.7-3.814-4.7s-3.589,1.927-3.814,4.7a.533.533,0,0,0,.388.546.567.567,0,0,0,.633-.243ZM22.34,17.47c-1.621,0-3.589,1.927-3.814,4.7a.533.533,0,0,0,.388.546.563.563,0,0,0,.633-.243l.647-1.118A2.551,2.551,0,0,1,22.34,19.93a2.551,2.551,0,0,1,2.145,1.421l.647,1.118a.548.548,0,0,0,.633.243.528.528,0,0,0,.388-.546C25.929,19.4,23.961,17.47,22.34,17.47Z" transform="translate(540.218 593)"/>
    <path id="smile-regular" d="M16.891,8C7.56,8,0,15.3,0,24.31S7.56,40.62,16.891,40.62s16.891-7.3,16.891-16.31S26.222,8,16.891,8Zm0,29.463A13.407,13.407,0,0,1,3.269,24.31,13.407,13.407,0,0,1,16.891,11.157,13.407,13.407,0,0,1,30.513,24.31,13.407,13.407,0,0,1,16.891,37.463ZM11.442,23.258a2.106,2.106,0,1,0-2.179-2.1A2.141,2.141,0,0,0,11.442,23.258Zm10.9,0a2.106,2.106,0,1,0-2.179-2.1A2.141,2.141,0,0,0,22.34,23.258Zm.272,4.775a7.612,7.612,0,0,1-11.442,0,1.68,1.68,0,0,0-2.3-.2,1.545,1.545,0,0,0-.211,2.223,10.969,10.969,0,0,0,16.469,0,1.54,1.54,0,0,0-.211-2.223A1.68,1.68,0,0,0,22.612,28.032Z" transform="translate(479.308 593)"/>
  </g>
</svg>
