<svg xmlns="http://www.w3.org/2000/svg" width="45.553" height="43.986" viewBox="0 0 45.553 43.986">
  <path id="frown-open-regular" d="M22.776,8C10.194,8,0,17.844,0,29.993S10.194,51.986,22.776,51.986s22.776-9.844,22.776-21.993S35.358,8,22.776,8Zm0,39.729c-10.13,0-18.368-7.955-18.368-17.736s8.238-17.736,18.368-17.736,18.368,7.955,18.368,17.736S32.906,47.729,22.776,47.729ZM18.368,25.736a2.941,2.941,0,1,0-2.939,2.838A2.887,2.887,0,0,0,18.368,25.736ZM30.124,22.9a2.84,2.84,0,1,0,2.939,2.838A2.887,2.887,0,0,0,30.124,22.9Zm-7.347,9.932c-3.27,0-8.155,1.889-8.8,5.427a1.458,1.458,0,0,0,1.883,1.605,28.629,28.629,0,0,1,6.916-1.357,28.629,28.629,0,0,1,6.916,1.357,1.458,1.458,0,0,0,1.883-1.605C30.932,34.72,26.046,32.831,22.776,32.831Z" transform="translate(0 -8)"/>
</svg>
