<svg xmlns="http://www.w3.org/2000/svg" width="45.553" height="43.986" viewBox="0 0 45.553 43.986">
  <path id="smile-regular" d="M22.776,8C10.194,8,0,17.844,0,29.993S10.194,51.986,22.776,51.986s22.776-9.844,22.776-21.993S35.358,8,22.776,8Zm0,39.729c-10.13,0-18.368-7.955-18.368-17.736s8.238-17.736,18.368-17.736,18.368,7.955,18.368,17.736S32.906,47.729,22.776,47.729ZM15.429,28.574a2.84,2.84,0,1,0-2.939-2.838A2.887,2.887,0,0,0,15.429,28.574Zm14.694,0a2.84,2.84,0,1,0-2.939-2.838A2.887,2.887,0,0,0,30.124,28.574Zm.367,6.438a10.264,10.264,0,0,1-15.429,0,2.265,2.265,0,0,0-3.1-.275,2.084,2.084,0,0,0-.285,3,14.791,14.791,0,0,0,22.207,0,2.076,2.076,0,0,0-.285-3A2.265,2.265,0,0,0,30.491,35.012Z" transform="translate(0 -8)"/>
</svg>
