<svg xmlns="http://www.w3.org/2000/svg" width="178" height="160.327" viewBox="0 0 178 160.327">
  <g id="undraw_feedback_re_urmj" transform="translate(-15.336 -34.958)">
    <path id="Tracé_39" data-name="Tracé 39" d="M315.145,246.3H298.256a1.426,1.426,0,1,1,0-2.852h16.889A1.427,1.427,0,0,1,315.145,246.3Z" transform="translate(-281.493 -208.489)" fill="#fff"/>
    <path id="Tracé_40" data-name="Tracé 40" d="M479.145,246.3H462.256a1.426,1.426,0,1,1,0-2.852h16.889A1.427,1.427,0,0,1,479.145,246.3Z" transform="translate(-394.97 -208.489)" fill="#fff"/>
    <path id="Tracé_50" data-name="Tracé 50" d="M532.712,554.721H528.9L527.079,540h5.634Z" transform="translate(-360.086 -363.136)" fill="#a0616a"/>
    <path id="Tracé_51" data-name="Tracé 51" d="M781.835,743.983l-4.073-1.654-.12-.049-2.249,1.7a4.788,4.788,0,0,0-4.784,4.582c-.006.067-.006.138-.006.209v.157H782.91v-4.948Z" transform="translate(-609.311 -553.646)" fill="#2f2e41"/>
    <path id="Tracé_52" data-name="Tracé 52" d="M493.438,545.065l-3.6,1.267-6.6-13.285,5.314-1.869Z" transform="translate(-329.751 -357.033)" fill="#a0616a"/>
    <path id="Tracé_53" data-name="Tracé 53" d="M755.885,735.817l-4.391-.209-.13-.007-1.556,2.354a4.788,4.788,0,0,0-2.993,5.909c.017.066.04.133.064.2l.052.148,11.61-4.085L756.9,735.46Z" transform="translate(-592.708 -548.927)" fill="#2f2e41"/>
    <path id="Tracé_54" data-name="Tracé 54" d="M744.895,532.93c3.492-.135-.834,27.692-.834,27.692s1.265,24.432,1,25.714a27.752,27.752,0,0,0-.034,4.74c-.684-1.245-7.743-.305-7.743-.305l-.96-24.761-4.9-19.84-6.8,13.3,6.515,20.413s2.638,2.441,2.358,3.406-7.191,3.14-8.461,3.189-.7-1.563-.758-3.15-6.037-16.3-8.139-21.3-.468-12.063.6-17.192,6.717-14.753,6.717-14.753C730.465,522.177,741.4,533.066,744.895,532.93Z" transform="translate(-570.92 -404.826)" fill="#2f2e41"/>
    <path id="Tracé_55" data-name="Tracé 55" d="M672.887,463.439a2.822,2.822,0,0,0,4.227.923l8.4,5.479-.026-5.21-7.971-4.4a2.837,2.837,0,0,0-4.628,3.213Z" transform="translate(-541.469 -357.823)" fill="#a0616a"/>
    <path id="Tracé_56" data-name="Tracé 56" d="M761.811,455.658c-8.66,0-13.432-1.733-15.966-3.281-3.1-1.893-3.629-3.888-3.65-3.973l-.006-.024.3-3.8.132-.3a6.008,6.008,0,0,0,.226-4.315l-.009-.029,0-.03,2.025-26.261,7.166-2.347,2.085-2.095,9.281-.135,1.293,2.622,7.317,2.755-3.594,21.4-1.723,2.97.694,3.236-.005.029-2.261,13.493-.125.005Q763.321,455.66,761.811,455.658Z" transform="translate(-589.651 -323.093)" fill="#3f3d56"/>
    <path id="Tracé_57" data-name="Tracé 57" d="M705.838,448.878l-3.4-2.014-.213-.307a4.848,4.848,0,0,0-3.837-2.079h-.04l-4.679-2.751,1.94-5.682,7.335,2.167L708.06,425.5a4.066,4.066,0,0,1,7.232-.618,4.2,4.2,0,0,1,.606,2.22v8.314l-.031.041Z" transform="translate(-556.08 -332.696)" fill="#3f3d56"/>
    <path id="Tracé_58" data-name="Tracé 58" d="M806.781,522.186a2.821,2.821,0,0,1,3.754-2.15l6.364-7.749,1.541,4.977-6.279,6.6a2.837,2.837,0,0,1-5.38-1.674Z" transform="translate(-634.311 -394.507)" fill="#a0616a"/>
    <path id="Tracé_59" data-name="Tracé 59" d="M821.614,459.766l-4.225-4.226,2.69-6.554,3.9-5.323c-4.154-2.022-7.272-6.813-9.532-10.779l-.025-.045.563-4.407a5.659,5.659,0,0,1,10.407-2.29l7.576,16.842-.085.127L826.787,453.5l-1.663,1.079Z" transform="translate(-639.629 -333.067)" fill="#3f3d56"/>
    <path id="Tracé_60" data-name="Tracé 60" d="M783.017,360.564a7.734,7.734,0,0,1-15.327-2.086l.015-.11a7.734,7.734,0,1,1,15.31,2.2Z" transform="translate(-607.247 -283.414)" fill="#a0616a"/>
    <path id="Tracé_61" data-name="Tracé 61" d="M779.822,359.915a4.679,4.679,0,0,0,.694-2.565c-.112-.892-.987-1.745-1.846-1.48-.514.158-.9.666-1.439.692-.739.036-1.163-.81-1.393-1.513l-.937-2.864a7.749,7.749,0,0,1-6.436,1.454,3.674,3.674,0,0,1-2.259-1.319,1.839,1.839,0,0,1,.193-2.421c.343-.271.8-.375,1.128-.664a1.264,1.264,0,0,0-1.009-2.2l2.359-.295-.7-1.271a2.321,2.321,0,0,0,1.846.339c.635-.114,1.232-.376,1.853-.55a7.132,7.132,0,0,1,7.934,3.332,3.02,3.02,0,0,1,3.292.951,4.8,4.8,0,0,1,.828,2.891,12.541,12.541,0,0,1-1.278,5.81,4.762,4.762,0,0,1-1.074,1.524,2.15,2.15,0,0,1-1.726.564" transform="translate(-606.019 -278.782)" fill="#2f2e41"/>
    <path id="Tracé_62" data-name="Tracé 62" d="M404.361,318.2a12.013,12.013,0,0,0,1.553,5.119,17.326,17.326,0,0,0,8.611,7.142c4.356,1.782,9.211,1.837,13.834,1.44,4.293-.369,8.543-1.225,12.853-1.4a89.545,89.545,0,0,1,9.992.238c6.448.458,12.87,1.307,19.25,2.336q2.592.413,5.173.888a2.548,2.548,0,0,1,.48.089c.031.013.082,0,.11.021.052.033-.21-.083-.051.048a4.77,4.77,0,0,1,.589.758l2.356,3.032a14.333,14.333,0,0,0,2.176,2.612,3.94,3.94,0,0,0,4.362.3,4.359,4.359,0,0,0,1.622-1.843A15.908,15.908,0,0,1,489.2,336.2c2.8-3.27,6.7-5.282,9.958-8.034a17.739,17.739,0,0,0,3.983-4.553,12.876,12.876,0,0,0,1.646-5.112,17.1,17.1,0,0,0-2.62-10.5,20.97,20.97,0,0,0-8.513-7.792,36.75,36.75,0,0,0-12.683-3.476,114.921,114.921,0,0,0-14.01-.464q-7.857.087-15.685.691t-15.617,1.725a136.294,136.294,0,0,0-14.881,2.727c-4.3,1.118-8.592,2.866-11.8,6.032A14.3,14.3,0,0,0,404.361,318.2Z" transform="translate(-355.885 -245.024)" fill="#0385f0"/>
    <path id="Tracé_63" data-name="Tracé 63" d="M476.049,350.538a1.542,1.542,0,0,1-1.461-1.733l.11-.87a1.039,1.039,0,0,0-.338-.9l-.654-.584a1.538,1.538,0,0,1,.738-2.658l.862-.164a1.037,1.037,0,0,0,.756-.6l.354-.8a1.539,1.539,0,0,1,2.756-.12l.422.769a1.037,1.037,0,0,0,.805.534l.872.088a1.538,1.538,0,0,1,.966,2.584l-.6.639a1.036,1.036,0,0,0-.258.93l.185.858a1.538,1.538,0,0,1-2.159,1.716l-.793-.374a1.035,1.035,0,0,0-.965.041l-.758.441A1.54,1.54,0,0,1,476.049,350.538Z" transform="translate(-403.524 -276.198)" fill="#fff"/>
    <path id="Tracé_64" data-name="Tracé 64" d="M516.14,349.372a1.553,1.553,0,0,1-1.036-.463,1.594,1.594,0,0,1-.417-1.332l.1-.8a1.057,1.057,0,0,0-.344-.922l-.606-.542a1.581,1.581,0,0,1-.554-1.241,1.538,1.538,0,0,1,1.252-1.453l.852-.162a1.057,1.057,0,0,0,.77-.613l.317-.721a1.61,1.61,0,0,1,1.357-.988,1.53,1.53,0,0,1,1.431.8l.417.76a1.058,1.058,0,0,0,.821.544l.809.082a1.58,1.58,0,0,1,1.178.679,1.538,1.538,0,0,1-.16,1.911l-.594.631a1.057,1.057,0,0,0-.263.947l.171.792a1.588,1.588,0,0,1-.279,1.331,1.534,1.534,0,0,1-1.868.442l-.785-.37a1.057,1.057,0,0,0-.982.043l-.749.436A1.54,1.54,0,0,1,516.14,349.372Z" transform="translate(-431.264 -275.392)" fill="#fff"/>
    <path id="Tracé_65" data-name="Tracé 65" d="M556.343,349.2a1.542,1.542,0,0,1-1.461-1.733l.11-.87a1.039,1.039,0,0,0-.338-.9l-.654-.584a1.538,1.538,0,0,1,.738-2.658l.862-.164a1.037,1.037,0,0,0,.756-.6l.354-.8a1.538,1.538,0,0,1,2.756-.12l.422.769a1.037,1.037,0,0,0,.805.534l.872.088a1.538,1.538,0,0,1,.965,2.584l-.6.639a1.035,1.035,0,0,0-.258.93l.185.858a1.538,1.538,0,0,1-2.159,1.716l-.793-.374a1.035,1.035,0,0,0-.965.041l-.758.441A1.54,1.54,0,0,1,556.343,349.2Z" transform="translate(-459.082 -275.275)" fill="#fff"/>
    <path id="Tracé_66" data-name="Tracé 66" d="M595.443,348.142a1.542,1.542,0,0,1-1.461-1.733l.111-.87a1.039,1.039,0,0,0-.338-.9l-.654-.584a1.538,1.538,0,0,1,.738-2.658l.862-.164a1.038,1.038,0,0,0,.756-.6l.354-.8a1.538,1.538,0,0,1,2.756-.119l.422.769a1.038,1.038,0,0,0,.806.534l.872.088a1.538,1.538,0,0,1,.966,2.584l-.6.639a1.036,1.036,0,0,0-.258.93l.185.858a1.538,1.538,0,0,1-2.159,1.716l-.793-.374a1.035,1.035,0,0,0-.965.042l-.758.441A1.54,1.54,0,0,1,595.443,348.142Z" transform="translate(-486.137 -274.541)" opacity="0.2"/>
    <path id="Tracé_67" data-name="Tracé 67" d="M634.544,347.082a1.542,1.542,0,0,1-1.461-1.733l.11-.87a1.038,1.038,0,0,0-.338-.9l-.654-.584a1.538,1.538,0,0,1,.738-2.658l.862-.164a1.037,1.037,0,0,0,.756-.6l.354-.8a1.539,1.539,0,0,1,2.756-.119l.422.769a1.037,1.037,0,0,0,.805.534l.873.088a1.538,1.538,0,0,1,.965,2.584l-.6.639a1.035,1.035,0,0,0-.258.93l.185.858a1.538,1.538,0,0,1-2.159,1.717l-.793-.374a1.035,1.035,0,0,0-.965.042l-.758.441A1.541,1.541,0,0,1,634.544,347.082Z" transform="translate(-513.192 -273.807)" opacity="0.2"/>
  </g>
</svg>
