<svg id="undraw_cooking_lyxy" xmlns="http://www.w3.org/2000/svg" width="728" height="754.885" viewBox="0 0 728 754.885">
  <rect id="Rectangle_15" data-name="Rectangle 15" width="33" height="524" transform="matrix(0.836, -0.548, 0.548, 0.836, 137.683, 282.037)" fill="#e6e6e6"/>
  <path id="Tracé_4" data-name="Tracé 4" d="M335.583,171.606l63.844,97.343a8.5,8.5,0,0,1-14.215,9.323l-73.4-111.907a60.627,60.627,0,0,0-29.149,4.787L362.634,293.08a8.5,8.5,0,0,1-14.215,9.323L268.45,180.475a60.627,60.627,0,0,0-16,24.829l73.4,111.907a8.5,8.5,0,0,1-14.215,9.323l-63.844-97.343c-1.64,27.142,7.209,59.311,26.6,88.881,36.044,54.956,94.84,80.109,131.323,56.181s36.84-87.877.8-142.833C387.11,201.85,361.13,180.916,335.583,171.606Z" transform="translate(-236 -72.557)" fill="#e6e6e6"/>
  <rect id="Rectangle_16" data-name="Rectangle 16" width="33" height="524" transform="translate(256 204)" fill="#e6e6e6"/>
  <ellipse id="Ellipse_1" data-name="Ellipse 1" cx="79" cy="119" rx="79" ry="119" transform="translate(193)" fill="#e6e6e6"/>
  <ellipse id="Ellipse_2" data-name="Ellipse 2" cx="65" cy="97.911" rx="65" ry="97.911" transform="translate(207 21.089)" fill="#ccc"/>
  <ellipse id="Ellipse_3" data-name="Ellipse 3" cx="364" cy="20.885" rx="364" ry="20.885" transform="translate(0 713.115)" fill="#e6e6e6"/>
  <path id="Tracé_5" data-name="Tracé 5" d="M815.268,806.25a1162.8,1162.8,0,0,0-412.536,0A15.049,15.049,0,0,1,385,791.458v-186.9H833v186.9a15.049,15.049,0,0,1-17.732,14.792Z" transform="translate(-236 -72.557)" fill="#fff"/>
  <path id="Tracé_6" data-name="Tracé 6" d="M792,466.557a92.859,92.859,0,0,0-30.4,5.086A179.055,179.055,0,0,0,437.161,470a93,93,0,1,0,12.17,174.75,179.026,179.026,0,0,0,300.748-2.164A93.007,93.007,0,1,0,792,466.557Z" transform="translate(-236 -72.557)" fill="#fff"/>
  <path id="Tracé_9" data-name="Tracé 9" d="M385.241,691.528l-.482-1.941c.564-.14,57.4-14.1,140.7-21.026,76.881-6.393,192.687-7.935,307.785,21.027l-.488,1.939c-114.816-28.89-230.368-27.354-307.088-20.976C442.519,677.462,385.8,691.388,385.241,691.528Z" transform="translate(-236 -72.557)" fill="#3f3d56"/>
  <path id="Tracé_10" data-name="Tracé 10" d="M385.241,718.528l-.482-1.941c.564-.14,57.4-14.1,140.7-21.026,76.881-6.393,192.687-7.935,307.785,21.027l-.488,1.939c-114.816-28.89-230.368-27.352-307.088-20.976C442.519,704.462,385.8,718.388,385.241,718.528Z" transform="translate(-236 -72.557)" fill="#3f3d56"/>
  <path id="Tracé_11" data-name="Tracé 11" d="M385.241,745.528l-.482-1.941c.564-.14,57.4-14.1,140.7-21.026,76.881-6.393,192.687-7.935,307.785,21.027l-.488,1.939c-114.816-28.89-230.368-27.352-307.088-20.976C442.519,731.462,385.8,745.388,385.241,745.528Z" transform="translate(-236 -72.557)" fill="#3f3d56"/>
  <path id="Tracé_12" data-name="Tracé 12" d="M753.267,598.713l-24.23-8.238L752.3,471.746l-15.992-1.454c-15.594,11.964-36.36,16.655-63,13.084l42.645,64.453-21.745,15.349L624.84,479.973A20.866,20.866,0,0,1,620,466.612h0a20.866,20.866,0,0,1,15.091-20.051l74.078-21.337,86.745,9.692c13.115,19.994,13.627,33.9-6.336,37.911Z" transform="translate(-236 -72.557)" fill="#2f2e41"/>
  <path id="Tracé_13" data-name="Tracé 13" d="M728.467,644.9h0A15.959,15.959,0,0,1,714.6,623.19l12.046-30.975c6.119-11.591,14.516-10.14,24.433,0l4.846,14.215a9.175,9.175,0,0,1-.535,7.176l-11.741,22.7A15.959,15.959,0,0,1,728.467,644.9Z" transform="translate(-236 -72.557)" fill="#2f2e41"/>
  <path id="Tracé_14" data-name="Tracé 14" d="M697.152,604.338h0a15.959,15.959,0,0,1-13.866-21.711l12.046-30.976c6.119-11.591,14.516-10.14,24.433,0l4.846,14.215a9.175,9.175,0,0,1-.535,7.176l-11.741,22.7a15.959,15.959,0,0,1-15.183,8.6Z" transform="translate(-236 -72.557)" fill="#2f2e41"/>
  <circle id="Ellipse_4" data-name="Ellipse 4" cx="27.138" cy="27.138" r="27.138" transform="translate(449.422 184.993)" fill="#ffb9b9"/>
  <path id="Tracé_15" data-name="Tracé 15" d="M518.721,250.415,481.406,269.8l-7.754-34.892,25.684-15.992Z" fill="#ffb9b9"/>
  <path id="Tracé_16" data-name="Tracé 16" d="M799.789,439.762c-37.234-11.246-71.018-17.073-95.468-8.238,8.427-23.708-7.127-59.911-24.23-96.921,7.38-9.647,19.146-13.384,32.469-15.023,14.577,10.584,24.741,3.791,32.469-12.6,16.854-.677,33.1,5.292,48.945,15.507C781.584,362.173,783.814,401.253,799.789,439.762Z" transform="translate(-236 -72.557)" fill="#3f3d56"/>
  <path id="Tracé_17" data-name="Tracé 17" d="M703.837,437.339c-5.88,3.466-11.306,9.3-16.477,16.477-8.738-5.349-16.428-11.439-22.486-18.683a40.011,40.011,0,0,1-7.33-37.429l16.56-53.822a23.61,23.61,0,0,1,7.678-11.38l2.186-1.776,21.807,41.192-21.807,40.707C686.734,420.039,694.883,428.6,703.837,437.339Z" transform="translate(-236 -72.557)" fill="#3f3d56"/>
  <path id="Tracé_18" data-name="Tracé 18" d="M711.343,478.375h0a14,14,0,0,1-19.667-10.719l-3.6-24.674,12.6-6.784,15.991,20.934a14,14,0,0,1-5.32,21.244Z" transform="translate(-236 -72.557)" fill="#ffb9b9"/>
  <path id="Tracé_19" data-name="Tracé 19" d="M739.94,283.5l-4.634.138L722.453,265.43c-16.469,1.7-29.965,8.858-41.385,19.818l-1.158-7.72a29.1,29.1,0,0,1,22.9-32.819h0a29.1,29.1,0,0,1,34.572,23.657Z" transform="translate(-236 -72.557)" fill="#2f2e41"/>
  <path id="Tracé_20" data-name="Tracé 20" d="M687.828,453.826h0a14,14,0,0,1,10.719-19.667l24.674-3.6,6.784,12.6-20.934,15.99a14,14,0,0,1-21.244-5.319Z" transform="translate(-236 -72.557)" fill="#ffb9b9"/>
  <path id="Tracé_21" data-name="Tracé 21" d="M804.49,431.381c-23.475,1.823-49.106,9.143-75.938,19.527a37.121,37.121,0,0,0-8.238-21.807c24.37-6.419,46.484-13.951,60.091-25.684l-8.238-62.03,17.93-20.353,3.093,1.614a20.652,20.652,0,0,1,10.469,13.143c7.571,29.449,10.933,57.665,8.622,84.218A10.471,10.471,0,0,1,804.49,431.381Z" transform="translate(-236 -72.557)" fill="#3f3d56"/>
  <path id="Tracé_22" data-name="Tracé 22" d="M331.886,800.669q-32.749,20.483-65.5-.017a4.441,4.441,0,0,1-2.1-4.1l6.812-88.561h55.1l7.783,88.53a4.44,4.44,0,0,1-2.1,4.145Z" transform="translate(-236 -72.557)" fill="#3f3d56"/>
  <ellipse id="Ellipse_5" data-name="Ellipse 5" cx="27.804" cy="10.018" rx="27.804" ry="10.018" transform="translate(34.592 626.421)" fill="#3f3d56"/>
  <path id="Tracé_23" data-name="Tracé 23" d="M320.189,705.614q-21.733,15.288-42.077,0V689.585h42.077Z" transform="translate(-236 -72.557)" fill="#fff"/>
  <ellipse id="Ellipse_6" data-name="Ellipse 6" cx="21.038" cy="8.015" rx="21.038" ry="8.015" transform="translate(42.113 609.013)" fill="#6c63ff"/>
  <ellipse id="Ellipse_7" data-name="Ellipse 7" cx="2.004" cy="1.002" rx="2.004" ry="1.002" transform="translate(62.149 615.024)" fill="#e6e6e6"/>
  <ellipse id="Ellipse_8" data-name="Ellipse 8" cx="2.004" cy="1.002" rx="2.004" ry="1.002" transform="translate(71.61 615.024)" fill="#e6e6e6"/>
  <ellipse id="Ellipse_9" data-name="Ellipse 9" cx="2.004" cy="1.002" rx="2.004" ry="1.002" transform="translate(66.88 617.389)" fill="#e6e6e6"/>
  <ellipse id="Ellipse_10" data-name="Ellipse 10" cx="2.004" cy="1.002" rx="2.004" ry="1.002" transform="translate(47.958 617.389)" fill="#e6e6e6"/>
  <ellipse id="Ellipse_11" data-name="Ellipse 11" cx="2.004" cy="1.002" rx="2.004" ry="1.002" transform="translate(52.688 615.024)" fill="#e6e6e6"/>
  <ellipse id="Ellipse_12" data-name="Ellipse 12" cx="2.004" cy="1.002" rx="2.004" ry="1.002" transform="translate(57.419 618.572)" fill="#e6e6e6"/>
  <path id="Tracé_24" data-name="Tracé 24" d="M936.886,800.669q-32.749,20.483-65.5-.017a4.441,4.441,0,0,1-2.1-4.1l6.813-88.561h55.1l7.783,88.53A4.44,4.44,0,0,1,936.886,800.669Z" transform="translate(-236 -72.557)" fill="#3f3d56"/>
  <ellipse id="Ellipse_13" data-name="Ellipse 13" cx="27.804" cy="10.018" rx="27.804" ry="10.018" transform="translate(639.592 626.421)" fill="#3f3d56"/>
  <path id="Tracé_25" data-name="Tracé 25" d="M925.189,705.614q-21.733,15.288-42.077,0V689.585h42.077Z" transform="translate(-236 -72.557)" fill="#fff"/>
  <ellipse id="Ellipse_14" data-name="Ellipse 14" cx="21.038" cy="8.015" rx="21.038" ry="8.015" transform="translate(647.113 609.013)" fill="#6c63ff"/>
  <ellipse id="Ellipse_15" data-name="Ellipse 15" cx="2.004" cy="1.002" rx="2.004" ry="1.002" transform="translate(667.149 615.024)" fill="#e6e6e6"/>
  <ellipse id="Ellipse_16" data-name="Ellipse 16" cx="2.004" cy="1.002" rx="2.004" ry="1.002" transform="translate(676.61 615.024)" fill="#e6e6e6"/>
  <ellipse id="Ellipse_17" data-name="Ellipse 17" cx="2.004" cy="1.002" rx="2.004" ry="1.002" transform="translate(671.879 617.389)" fill="#e6e6e6"/>
  <ellipse id="Ellipse_18" data-name="Ellipse 18" cx="2.004" cy="1.002" rx="2.004" ry="1.002" transform="translate(652.957 617.389)" fill="#e6e6e6"/>
  <ellipse id="Ellipse_19" data-name="Ellipse 19" cx="2.004" cy="1.002" rx="2.004" ry="1.002" transform="translate(657.688 615.024)" fill="#e6e6e6"/>
  <ellipse id="Ellipse_20" data-name="Ellipse 20" cx="2.004" cy="1.002" rx="2.004" ry="1.002" transform="translate(662.418 618.572)" fill="#e6e6e6"/>
</svg>
